# xmcd CD database file
#
# Track frame offsets:
#	187
#	23100
#	46875
#
# Disc length: 872 seconds
#
# Revision: 0
# Processed by: cddbd v1.5.1PL0 Copyright (c) Steve Scherf et al.
# Submitted via: CDex 1.51
#
DISCID=1a036603
DTITLE=桃乃未琴 - 花
DYEAR=1999
DGENRE=Rock
TTITLE0=花
TTITLE1=雨雲
TTITLE2=hoa(花)
EXTD=YEAR: 1999
EXTT0=
EXTT1=
EXTT2=
PLAYORDER=
